# xmcd CD database file
#
# Track frame offsets:
#	150
#	13768
#	24681
#	39625
#	52583
#	66317
#	81336
#	92697
#	106081
#	121543
#
# Disc length: 1860 seconds
#
# Revision: 3
# Processed by: cddbd v1.5.2PL0 Copyright (c) Steve Scherf et al.
# Submitted via: CdAid (MTCDDB.DLL V2003.12.21)
#
DISCID=7207420a
DTITLE=Grupo Sempre Alegria - Sempre Alegria
DYEAR=1998
DGENRE=Folk
TTITLE0=Me Leva
TTITLE1=Foi Bom Te Conhecer
TTITLE2=Só Pra Te Agradar
TTITLE3=Coração de Bamba
TTITLE4=Mini Saia
TTITLE5=Cristiane
TTITLE6=Desavenças
TTITLE7=Coisas do Coração
TTITLE8=Menina
TTITLE9=Preciso
EXTD=ID3G:  17 YEAR: 1998
EXTT0=
EXTT1=
EXTT2=
EXTT3=
EXTT4=
EXTT5=
EXTT6=
EXTT7=
EXTT8=
EXTT9=
PLAYORDER=
